{
    "asset" : {
        "generator" : "Khronos glTF Blender I/O v1.0.5",
        "version" : "2.0"
    },
    "scene" : 0,
    "scenes" : [
        {
            "name" : "Scene",
            "nodes" : [
                0,
                1,
                2,
                3
            ]
        }
    ],
    "nodes" : [
        {
            "mesh" : 0,
            "name" : "room_1"
        },
        {
            "mesh" : 1,
            "name" : "room_L",
            "translation" : [
                0,
                1,
                0
            ]
        },
        {
            "mesh" : 2,
            "name" : "room_T",
            "translation" : [
                0,
                1,
                0
            ]
        },
        {
            "mesh" : 3,
            "name" : "room_2",
            "scale" : [
                10,
                10,
                10
            ],
            "translation" : [
                0,
                10,
                0
            ]
        }
    ],
    "materials" : [
        {
            "name" : "generic",
            "pbrMetallicRoughness" : {
                "baseColorTexture" : {
                    "index" : 0,
                    "texCoord" : 0
                },
                "metallicFactor" : 0,
                "roughnessFactor" : 1
            }
        }
    ],
    "meshes" : [
        {
            "name" : "room_1",
            "primitives" : [
                {
                    "attributes" : {
                        "POSITION" : 0,
                        "NORMAL" : 1,
                        "TEXCOORD_0" : 2
                    },
                    "indices" : 3,
                    "material" : 0
                }
            ]
        },
        {
            "name" : "room_L",
            "primitives" : [
                {
                    "attributes" : {
                        "POSITION" : 4,
                        "NORMAL" : 5,
                        "TEXCOORD_0" : 6
                    },
                    "indices" : 7,
                    "material" : 0
                }
            ]
        },
        {
            "name" : "room_T",
            "primitives" : [
                {
                    "attributes" : {
                        "POSITION" : 8,
                        "NORMAL" : 9,
                        "TEXCOORD_0" : 10
                    },
                    "indices" : 11,
                    "material" : 0
                }
            ]
        },
        {
            "name" : "room_2",
            "primitives" : [
                {
                    "attributes" : {
                        "POSITION" : 12,
                        "NORMAL" : 13,
                        "TEXCOORD_0" : 14
                    },
                    "indices" : 15,
                    "material" : 0
                }
            ]
        }
    ],
    "textures" : [
        {
            "source" : 0
        }
    ],
    "images" : [
        {
            "bufferView" : 4,
            "mimeType" : "image/png",
            "name" : "grid"
        }
    ],
    "accessors" : [
        {
            "bufferView" : 0,
            "componentType" : 5126,
            "count" : 60,
            "max" : [
                4,
                5,
                3
            ],
            "min" : [
                -4,
                -5.960464477539063e-08,
                -7
            ],
            "type" : "VEC3"
        },
        {
            "bufferView" : 1,
            "componentType" : 5126,
            "count" : 60,
            "type" : "VEC3"
        },
        {
            "bufferView" : 2,
            "componentType" : 5126,
            "count" : 60,
            "type" : "VEC2"
        },
        {
            "bufferView" : 3,
            "componentType" : 5123,
            "count" : 96,
            "type" : "SCALAR"
        },
        {
            "bufferView" : 5,
            "componentType" : 5126,
            "count" : 48,
            "max" : [
                3,
                1,
                1
            ],
            "min" : [
                -1,
                -1,
                -3
            ],
            "type" : "VEC3"
        },
        {
            "bufferView" : 6,
            "componentType" : 5126,
            "count" : 48,
            "type" : "VEC3"
        },
        {
            "bufferView" : 7,
            "componentType" : 5126,
            "count" : 48,
            "type" : "VEC2"
        },
        {
            "bufferView" : 8,
            "componentType" : 5123,
            "count" : 72,
            "type" : "SCALAR"
        },
        {
            "bufferView" : 9,
            "componentType" : 5126,
            "count" : 60,
            "max" : [
                3,
                1,
                3
            ],
            "min" : [
                -1,
                -1,
                -3
            ],
            "type" : "VEC3"
        },
        {
            "bufferView" : 10,
            "componentType" : 5126,
            "count" : 60,
            "type" : "VEC3"
        },
        {
            "bufferView" : 11,
            "componentType" : 5126,
            "count" : 60,
            "type" : "VEC2"
        },
        {
            "bufferView" : 12,
            "componentType" : 5123,
            "count" : 90,
            "type" : "SCALAR"
        },
        {
            "bufferView" : 13,
            "componentType" : 5126,
            "count" : 212,
            "max" : [
                1,
                0,
                1.2000000476837158
            ],
            "min" : [
                -1.2000000476837158,
                -1,
                -1.2000000476837158
            ],
            "type" : "VEC3"
        },
        {
            "bufferView" : 14,
            "componentType" : 5126,
            "count" : 212,
            "type" : "VEC3"
        },
        {
            "bufferView" : 15,
            "componentType" : 5126,
            "count" : 212,
            "type" : "VEC2"
        },
        {
            "bufferView" : 16,
            "componentType" : 5123,
            "count" : 366,
            "type" : "SCALAR"
        }
    ],
    "bufferViews" : [
        {
            "buffer" : 0,
            "byteLength" : 720,
            "byteOffset" : 0
        },
        {
            "buffer" : 0,
            "byteLength" : 720,
            "byteOffset" : 720
        },
        {
            "buffer" : 0,
            "byteLength" : 480,
            "byteOffset" : 1440
        },
        {
            "buffer" : 0,
            "byteLength" : 192,
            "byteOffset" : 1920
        },
        {
            "buffer" : 0,
            "byteLength" : 8861,
            "byteOffset" : 2112
        },
        {
            "buffer" : 0,
            "byteLength" : 576,
            "byteOffset" : 10976
        },
        {
            "buffer" : 0,
            "byteLength" : 576,
            "byteOffset" : 11552
        },
        {
            "buffer" : 0,
            "byteLength" : 384,
            "byteOffset" : 12128
        },
        {
            "buffer" : 0,
            "byteLength" : 144,
            "byteOffset" : 12512
        },
        {
            "buffer" : 0,
            "byteLength" : 720,
            "byteOffset" : 12656
        },
        {
            "buffer" : 0,
            "byteLength" : 720,
            "byteOffset" : 13376
        },
        {
            "buffer" : 0,
            "byteLength" : 480,
            "byteOffset" : 14096
        },
        {
            "buffer" : 0,
            "byteLength" : 180,
            "byteOffset" : 14576
        },
        {
            "buffer" : 0,
            "byteLength" : 2544,
            "byteOffset" : 14756
        },
        {
            "buffer" : 0,
            "byteLength" : 2544,
            "byteOffset" : 17300
        },
        {
            "buffer" : 0,
            "byteLength" : 1696,
            "byteOffset" : 19844
        },
        {
            "buffer" : 0,
            "byteLength" : 732,
            "byteOffset" : 21540
        }
    ],
    "buffers" : [
        {
            "byteLength" : 22272,
            "uri" : "data:application/octet-stream;base64,"
        }
    ]
}
